<svg width="176" height="30" viewBox="0 0 176 30" fill="none" xmlns="http://www.w3.org/2000/svg">
<path d="M71.1967 12.2247C71.4529 11.5537 71.5423 10.8306 71.4574 10.1175C71.3725 9.40434 71.1157 8.72248 70.7091 8.13046C70.308 7.55885 69.7732 7.09396 69.1513 6.77628C68.5295 6.45861 67.8394 6.29777 67.1411 6.30777H56.8281C55.7306 6.32104 54.6659 6.68362 53.7884 7.34294C52.9389 7.96864 52.2907 8.82876 51.9231 9.81769L49.3652 16.8936C49.108 17.5644 49.018 18.2877 49.103 19.001C49.1879 19.7143 49.4453 20.3963 49.8528 20.9879C50.2539 21.5595 50.7887 22.0244 51.4105 22.3421C52.0324 22.6597 52.7225 22.8206 53.4207 22.8106H63.7318C64.8299 22.7973 65.8953 22.4347 66.7735 21.7754C67.623 21.1497 68.2712 20.2896 68.6387 19.3006L71.1967 12.2247ZM67.5204 10.8896L64.9605 17.9636C64.7844 18.4551 64.2098 18.8866 63.7338 18.8866H53.4207C53.352 18.8923 53.2829 18.8815 53.2192 18.8549C53.1556 18.8282 53.0992 18.7867 53.055 18.7337C53.0152 18.6558 52.9934 18.57 52.9914 18.4825C52.9894 18.3951 53.0072 18.3083 53.0434 18.2287L55.6014 11.1547C55.7794 10.6632 56.3521 10.2318 56.83 10.2318H67.1411C67.2096 10.2257 67.2786 10.2364 67.342 10.263C67.4054 10.2897 67.4613 10.3314 67.5049 10.3846C67.5451 10.4623 67.5672 10.5481 67.5695 10.6356C67.5718 10.723 67.5544 10.8099 67.5184 10.8896H67.5204Z" fill="#071222"/>
<path d="M21.758 18.5131C22.0144 17.8421 22.1038 17.1188 22.0185 16.4056C21.9332 15.6924 21.6758 15.0106 21.2684 14.4189C20.868 13.8479 20.3342 13.3832 19.7134 13.0652C19.0927 12.7473 18.4037 12.5856 17.7063 12.5943H8.52712C8.45848 12.6008 8.3893 12.5904 8.32557 12.5641C8.26185 12.5378 8.2055 12.4964 8.16142 12.4433C8.12156 12.3655 8.09981 12.2796 8.0978 12.1922C8.09579 12.1047 8.11357 12.018 8.14981 11.9383L8.43231 11.1528C8.61032 10.6613 9.18305 10.2298 9.66097 10.2298H24.8248L26.2489 6.30584H9.66097C8.5628 6.3187 7.49733 6.68131 6.61931 7.34101C5.76986 7.96671 5.12159 8.82683 4.75406 9.81576L4.46963 10.6033C4.21325 11.2743 4.12383 11.9975 4.20911 12.7108C4.29439 13.424 4.5518 14.1059 4.95916 14.6975C5.36028 15.2691 5.89506 15.734 6.51693 16.0517C7.13879 16.3694 7.82888 16.5302 8.52712 16.5202H17.7063C17.7749 16.514 17.844 16.5245 17.9077 16.5508C17.9713 16.5771 18.0277 16.6184 18.072 16.6711C18.1119 16.749 18.1336 16.8349 18.1356 16.9223C18.1376 17.0097 18.1198 17.0965 18.0836 17.1761L17.8011 17.9617C17.6231 18.4532 17.0504 18.8846 16.5724 18.8846H1.42216L0 22.8086H16.5724C17.6706 22.7958 18.7361 22.4331 19.6141 21.7734C20.4636 21.1477 21.1118 20.2877 21.4794 19.2987L21.758 18.5131Z" fill="#071222"/>
<path d="M43.5876 6.29422H33.2203C32.1176 6.30794 31.0474 6.67031 30.1632 7.32941C29.3096 7.95478 28.6578 8.81643 28.2883 9.80801L21.2878 29.1048H25.4711L27.7678 22.8106H40.1647C41.2675 22.7968 42.3376 22.4345 43.2219 21.7754C44.0755 21.15 44.7273 20.2884 45.0968 19.2968L47.6625 12.215C47.9204 11.5439 48.0105 10.8199 47.9248 10.106C47.8392 9.39207 47.5804 8.70993 47.171 8.11884C46.7672 7.54615 46.2297 7.08062 45.6053 6.76266C44.9808 6.4447 44.2882 6.2839 43.5876 6.29422ZM43.9745 10.878L41.4089 17.9598C41.2309 18.4512 40.6542 18.8827 40.1744 18.8827H29.1803L31.9859 11.1431C32.1639 10.6516 32.7405 10.2201 33.2203 10.2201H43.5876C43.6564 10.2143 43.7257 10.225 43.7896 10.2512C43.8535 10.2774 43.9103 10.3185 43.9552 10.3711C43.9965 10.4488 44.019 10.5351 44.0211 10.6232C44.0231 10.7112 44.0045 10.7985 43.9668 10.878H43.9745Z" fill="#071222"/>
<path d="M77.3303 7.34295C76.478 7.96756 75.827 8.82778 75.4573 9.8177L70.7459 22.8106H74.9214L79.1491 11.1547C79.3271 10.6633 79.9018 10.2318 80.3817 10.2318H88.8275L90.2555 6.30778H80.3875C79.2843 6.31896 78.2134 6.68158 77.3303 7.34295Z" fill="#071222"/>
<path d="M148.119 6.32907H137.771C136.67 6.3417 135.602 6.70274 134.72 7.36036C133.868 7.98203 133.218 8.83975 132.848 9.82736L128.137 22.7757H132.313L136.538 11.1663C136.716 10.6768 137.293 10.2472 137.771 10.2472H148.119C148.187 10.2411 148.256 10.2516 148.32 10.2779C148.384 10.3042 148.44 10.3454 148.484 10.3982C148.525 10.475 148.548 10.5602 148.55 10.6471C148.552 10.7341 148.535 10.8204 148.498 10.8993L144.177 22.7816H148.353L152.182 12.2266C152.439 11.5581 152.529 10.8368 152.444 10.1255C152.358 9.4143 152.101 8.73471 151.693 8.14594C151.289 7.57604 150.753 7.11287 150.13 6.79635C149.507 6.47983 148.817 6.31946 148.119 6.32907Z" fill="#071222"/>
<path d="M128.042 8.11885C127.641 7.54701 127.106 7.08183 126.485 6.76383C125.863 6.44582 125.173 6.28461 124.474 6.29423H110.526L109.103 10.2221H124.474C124.543 10.2161 124.611 10.2267 124.675 10.253C124.738 10.2792 124.794 10.3204 124.838 10.373C124.878 10.451 124.901 10.5371 124.903 10.6249C124.905 10.7127 124.888 10.7999 124.852 10.88L124.234 12.5885H111.894C110.795 12.6017 109.73 12.9643 108.852 13.6236C108.002 14.2504 107.353 15.1119 106.987 16.1023L106.704 16.8898C106.447 17.5609 106.357 18.2845 106.442 18.9981C106.527 19.7117 106.784 20.394 107.192 20.986C107.593 21.5578 108.127 22.023 108.749 22.341C109.371 22.659 110.061 22.8202 110.76 22.8106H121.071C122.169 22.7977 123.234 22.4351 124.112 21.7754C124.962 21.1486 125.611 20.2871 125.978 19.2968L128.53 12.215C128.785 11.5436 128.874 10.8203 128.789 10.107C128.704 9.39373 128.448 8.71157 128.042 8.11885ZM110.388 18.2248L110.673 17.4393C110.849 16.9478 111.423 16.5163 111.899 16.5163H122.826L122.305 17.9598C122.127 18.4512 121.554 18.8827 121.077 18.8827H110.765C110.697 18.8887 110.628 18.8781 110.565 18.8518C110.502 18.8256 110.446 18.7844 110.402 18.7318C110.36 18.6541 110.338 18.5679 110.335 18.4799C110.333 18.3919 110.351 18.3046 110.388 18.2248Z" fill="#071222"/>
<path d="M175.223 8.13046C174.822 7.55885 174.287 7.09396 173.665 6.77628C173.043 6.45861 172.353 6.29777 171.655 6.30777H161.344C160.246 6.32103 159.18 6.6836 158.302 7.34294C157.453 7.96864 156.804 8.82876 156.437 9.81769L153.879 16.8936C153.623 17.5646 153.533 18.2877 153.618 19.0008C153.703 19.714 153.96 20.3959 154.367 20.9879C154.768 21.5595 155.302 22.0244 155.924 22.3421C156.546 22.6597 157.236 22.8206 157.935 22.8106H168.242C169.339 22.7973 170.404 22.4347 171.281 21.7754C172.131 21.1497 172.779 20.2896 173.147 19.3006L175.705 12.2247C175.963 11.5544 176.054 10.8314 175.97 10.118C175.886 9.40471 175.629 8.72256 175.223 8.13046ZM172.032 10.8896L169.474 17.9636C169.296 18.4551 168.724 18.8866 168.246 18.8866H157.935C157.866 18.8927 157.797 18.8819 157.734 18.8553C157.67 18.8287 157.614 18.7869 157.571 18.7337C157.531 18.656 157.509 18.5702 157.506 18.4828C157.504 18.3953 157.521 18.3085 157.557 18.2287L160.117 11.1547C160.293 10.6632 160.868 10.2318 161.344 10.2318H171.655C171.724 10.226 171.793 10.2369 171.856 10.2635C171.92 10.2901 171.976 10.3316 172.021 10.3846C172.06 10.4625 172.082 10.5483 172.084 10.6358C172.086 10.7232 172.068 10.81 172.032 10.8896Z" fill="#071222"/>
<path d="M100.116 10.2279H105.744L107.168 6.31553H101.532L103.802 0H99.6398L97.3604 6.31553H93.6087L92.1846 10.2279H95.9538L93.4868 16.913C92.9063 18.5344 92.9876 20.0669 93.7267 21.1214C94.5239 22.2572 95.6248 22.8106 97.0915 22.8106H101.118L102.542 18.8982H97.5423C97.4738 18.9039 97.4048 18.8931 97.3413 18.8669C97.2777 18.8406 97.2212 18.7997 97.1766 18.7473C97.1361 18.6703 97.114 18.585 97.112 18.4981C97.11 18.4111 97.1281 18.3249 97.165 18.2461L100.116 10.2279Z" fill="#071222"/>
</svg>
